<mxfile host="app.diagrams.net" modified="2023-01-09T12:38:48.587Z" agent="5.0 (Macintosh; Intel Mac OS X 10_15_7) AppleWebKit/537.36 (KHTML, like Gecko) Chrome/108.0.0.0 Safari/537.36" etag="9r7KHZvIwxk0mfxRHcnv" version="20.8.1" type="github">
  <diagram id="pn7QtyfDzhDfdzI91Lx6" name="Page-1">
    <mxGraphModel dx="3059" dy="1901" grid="1" gridSize="10" guides="1" tooltips="1" connect="1" arrows="1" fold="1" page="1" pageScale="1" pageWidth="827" pageHeight="1169" math="0" shadow="0">
      <root>
        <mxCell id="0" />
        <mxCell id="1" parent="0" />
        <mxCell id="H_lcCwCGOFw28XVvDMrc-1" value="TagWithQuestionObject" style="swimlane;fontStyle=0;childLayout=stackLayout;horizontal=1;startSize=30;horizontalStack=0;resizeParent=1;resizeParentMax=0;resizeLast=0;collapsible=1;marginBottom=0;whiteSpace=wrap;html=1;" parent="1" vertex="1">
          <mxGeometry x="40" y="109" width="140" height="180" as="geometry">
            <mxRectangle x="-160" y="110" width="170" height="30" as="alternateBounds" />
          </mxGeometry>
        </mxCell>
        <mxCell id="H_lcCwCGOFw28XVvDMrc-2" value="&lt;div style=&quot;text-align: center;&quot;&gt;&lt;span style=&quot;background-color: initial;&quot;&gt;id&lt;/span&gt;&lt;/div&gt;" style="text;strokeColor=none;fillColor=none;align=left;verticalAlign=middle;spacingLeft=4;spacingRight=4;overflow=hidden;points=[[0,0.5],[1,0.5]];portConstraint=eastwest;rotatable=0;whiteSpace=wrap;html=1;" parent="H_lcCwCGOFw28XVvDMrc-1" vertex="1">
          <mxGeometry y="30" width="140" height="30" as="geometry" />
        </mxCell>
        <mxCell id="H_lcCwCGOFw28XVvDMrc-26" value="&lt;span style=&quot;text-align: center;&quot;&gt;modelId&lt;/span&gt;" style="text;strokeColor=none;fillColor=none;align=left;verticalAlign=middle;spacingLeft=4;spacingRight=4;overflow=hidden;points=[[0,0.5],[1,0.5]];portConstraint=eastwest;rotatable=0;whiteSpace=wrap;html=1;" parent="H_lcCwCGOFw28XVvDMrc-1" vertex="1">
          <mxGeometry y="60" width="140" height="30" as="geometry" />
        </mxCell>
        <mxCell id="H_lcCwCGOFw28XVvDMrc-3" value="&lt;div style=&quot;border-color: var(--border-color); text-align: center;&quot;&gt;tagId&lt;/div&gt;" style="text;strokeColor=none;fillColor=none;align=left;verticalAlign=middle;spacingLeft=4;spacingRight=4;overflow=hidden;points=[[0,0.5],[1,0.5]];portConstraint=eastwest;rotatable=0;whiteSpace=wrap;html=1;" parent="H_lcCwCGOFw28XVvDMrc-1" vertex="1">
          <mxGeometry y="90" width="140" height="30" as="geometry" />
        </mxCell>
        <mxCell id="H_lcCwCGOFw28XVvDMrc-4" value="&lt;div style=&quot;border-color: var(--border-color); text-align: center;&quot;&gt;modelName&lt;/div&gt;" style="text;strokeColor=none;fillColor=none;align=left;verticalAlign=middle;spacingLeft=4;spacingRight=4;overflow=hidden;points=[[0,0.5],[1,0.5]];portConstraint=eastwest;rotatable=0;whiteSpace=wrap;html=1;" parent="H_lcCwCGOFw28XVvDMrc-1" vertex="1">
          <mxGeometry y="120" width="140" height="30" as="geometry" />
        </mxCell>
        <mxCell id="H_lcCwCGOFw28XVvDMrc-7" value="&lt;span style=&quot;text-align: center;&quot;&gt;isActive&lt;/span&gt;" style="text;strokeColor=none;fillColor=none;align=left;verticalAlign=middle;spacingLeft=4;spacingRight=4;overflow=hidden;points=[[0,0.5],[1,0.5]];portConstraint=eastwest;rotatable=0;whiteSpace=wrap;html=1;" parent="H_lcCwCGOFw28XVvDMrc-1" vertex="1">
          <mxGeometry y="150" width="140" height="30" as="geometry" />
        </mxCell>
        <mxCell id="H_lcCwCGOFw28XVvDMrc-8" value="TagParentChildRelation" style="swimlane;fontStyle=0;childLayout=stackLayout;horizontal=1;startSize=30;horizontalStack=0;resizeParent=1;resizeParentMax=0;resizeLast=0;collapsible=1;marginBottom=0;whiteSpace=wrap;html=1;" parent="1" vertex="1">
          <mxGeometry x="90" y="-56" width="130" height="120" as="geometry">
            <mxRectangle x="-160" y="110" width="170" height="30" as="alternateBounds" />
          </mxGeometry>
        </mxCell>
        <mxCell id="H_lcCwCGOFw28XVvDMrc-9" value="&lt;div style=&quot;text-align: center;&quot;&gt;id&lt;/div&gt;" style="text;strokeColor=none;fillColor=none;align=left;verticalAlign=middle;spacingLeft=4;spacingRight=4;overflow=hidden;points=[[0,0.5],[1,0.5]];portConstraint=eastwest;rotatable=0;whiteSpace=wrap;html=1;" parent="H_lcCwCGOFw28XVvDMrc-8" vertex="1">
          <mxGeometry y="30" width="130" height="30" as="geometry" />
        </mxCell>
        <mxCell id="H_lcCwCGOFw28XVvDMrc-24" value="&lt;div style=&quot;text-align: center;&quot;&gt;&lt;span style=&quot;background-color: initial;&quot;&gt;parentId&lt;/span&gt;&lt;/div&gt;" style="text;strokeColor=none;fillColor=none;align=left;verticalAlign=middle;spacingLeft=4;spacingRight=4;overflow=hidden;points=[[0,0.5],[1,0.5]];portConstraint=eastwest;rotatable=0;whiteSpace=wrap;html=1;" parent="H_lcCwCGOFw28XVvDMrc-8" vertex="1">
          <mxGeometry y="60" width="130" height="30" as="geometry" />
        </mxCell>
        <mxCell id="H_lcCwCGOFw28XVvDMrc-10" value="&lt;div style=&quot;border-color: var(--border-color); text-align: center;&quot;&gt;childId&lt;br&gt;&lt;/div&gt;" style="text;strokeColor=none;fillColor=none;align=left;verticalAlign=middle;spacingLeft=4;spacingRight=4;overflow=hidden;points=[[0,0.5],[1,0.5]];portConstraint=eastwest;rotatable=0;whiteSpace=wrap;html=1;" parent="H_lcCwCGOFw28XVvDMrc-8" vertex="1">
          <mxGeometry y="90" width="130" height="30" as="geometry" />
        </mxCell>
        <mxCell id="H_lcCwCGOFw28XVvDMrc-41" style="edgeStyle=orthogonalEdgeStyle;rounded=0;orthogonalLoop=1;jettySize=auto;html=1;entryX=0;entryY=0.5;entryDx=0;entryDy=0;" parent="1" source="H_lcCwCGOFw28XVvDMrc-14" target="H_lcCwCGOFw28XVvDMrc-3" edge="1">
          <mxGeometry relative="1" as="geometry" />
        </mxCell>
        <mxCell id="H_lcCwCGOFw28XVvDMrc-14" value="tag" style="swimlane;fontStyle=0;childLayout=stackLayout;horizontal=1;startSize=30;horizontalStack=0;resizeParent=1;resizeParentMax=0;resizeLast=0;collapsible=1;marginBottom=0;whiteSpace=wrap;html=1;" parent="1" vertex="1">
          <mxGeometry x="-290" y="-41" width="140" height="90" as="geometry">
            <mxRectangle x="-160" y="110" width="170" height="30" as="alternateBounds" />
          </mxGeometry>
        </mxCell>
        <mxCell id="H_lcCwCGOFw28XVvDMrc-15" value="&lt;div style=&quot;text-align: center;&quot;&gt;id&lt;/div&gt;" style="text;strokeColor=none;fillColor=none;align=left;verticalAlign=middle;spacingLeft=4;spacingRight=4;overflow=hidden;points=[[0,0.5],[1,0.5]];portConstraint=eastwest;rotatable=0;whiteSpace=wrap;html=1;" parent="H_lcCwCGOFw28XVvDMrc-14" vertex="1">
          <mxGeometry y="30" width="140" height="30" as="geometry" />
        </mxCell>
        <mxCell id="H_lcCwCGOFw28XVvDMrc-22" value="&lt;div style=&quot;text-align: center;&quot;&gt;tagName&lt;/div&gt;" style="text;strokeColor=none;fillColor=none;align=left;verticalAlign=middle;spacingLeft=4;spacingRight=4;overflow=hidden;points=[[0,0.5],[1,0.5]];portConstraint=eastwest;rotatable=0;whiteSpace=wrap;html=1;" parent="H_lcCwCGOFw28XVvDMrc-14" vertex="1">
          <mxGeometry y="60" width="140" height="30" as="geometry" />
        </mxCell>
        <mxCell id="H_lcCwCGOFw28XVvDMrc-18" value="&lt;span style=&quot;&quot;&gt;ParentTag&lt;/span&gt;" style="swimlane;fontStyle=0;childLayout=stackLayout;horizontal=1;startSize=30;horizontalStack=0;resizeParent=1;resizeParentMax=0;resizeLast=0;collapsible=1;marginBottom=0;whiteSpace=wrap;html=1;" parent="1" vertex="1">
          <mxGeometry x="450" y="-21" width="140" height="100" as="geometry">
            <mxRectangle x="-160" y="110" width="170" height="30" as="alternateBounds" />
          </mxGeometry>
        </mxCell>
        <mxCell id="H_lcCwCGOFw28XVvDMrc-19" value="&lt;div style=&quot;text-align: center;&quot;&gt;id&lt;/div&gt;" style="text;strokeColor=none;fillColor=none;align=left;verticalAlign=middle;spacingLeft=4;spacingRight=4;overflow=hidden;points=[[0,0.5],[1,0.5]];portConstraint=eastwest;rotatable=0;whiteSpace=wrap;html=1;" parent="H_lcCwCGOFw28XVvDMrc-18" vertex="1">
          <mxGeometry y="30" width="140" height="20" as="geometry" />
        </mxCell>
        <mxCell id="H_lcCwCGOFw28XVvDMrc-25" value="&lt;div style=&quot;text-align: center;&quot;&gt;&lt;span style=&quot;&quot;&gt;name&lt;/span&gt;&lt;br&gt;&lt;/div&gt;" style="text;strokeColor=none;fillColor=none;align=left;verticalAlign=middle;spacingLeft=4;spacingRight=4;overflow=hidden;points=[[0,0.5],[1,0.5]];portConstraint=eastwest;rotatable=0;whiteSpace=wrap;html=1;" parent="H_lcCwCGOFw28XVvDMrc-18" vertex="1">
          <mxGeometry y="50" width="140" height="20" as="geometry" />
        </mxCell>
        <mxCell id="H_lcCwCGOFw28XVvDMrc-20" value="&lt;div style=&quot;border-color: var(--border-color); text-align: center;&quot;&gt;&lt;span style=&quot;&quot;&gt;isPublished&lt;/span&gt;&lt;br&gt;&lt;/div&gt;" style="text;strokeColor=none;fillColor=none;align=left;verticalAlign=middle;spacingLeft=4;spacingRight=4;overflow=hidden;points=[[0,0.5],[1,0.5]];portConstraint=eastwest;rotatable=0;whiteSpace=wrap;html=1;" parent="H_lcCwCGOFw28XVvDMrc-18" vertex="1">
          <mxGeometry y="70" width="140" height="30" as="geometry" />
        </mxCell>
        <mxCell id="H_lcCwCGOFw28XVvDMrc-29" style="edgeStyle=orthogonalEdgeStyle;rounded=0;orthogonalLoop=1;jettySize=auto;html=1;entryX=0;entryY=0.5;entryDx=0;entryDy=0;" parent="1" source="H_lcCwCGOFw28XVvDMrc-24" target="H_lcCwCGOFw28XVvDMrc-19" edge="1">
          <mxGeometry relative="1" as="geometry" />
        </mxCell>
        <mxCell id="H_lcCwCGOFw28XVvDMrc-30" style="edgeStyle=orthogonalEdgeStyle;rounded=0;orthogonalLoop=1;jettySize=auto;html=1;entryX=1;entryY=0.5;entryDx=0;entryDy=0;" parent="1" source="H_lcCwCGOFw28XVvDMrc-10" target="H_lcCwCGOFw28XVvDMrc-15" edge="1">
          <mxGeometry relative="1" as="geometry" />
        </mxCell>
        <mxCell id="H_lcCwCGOFw28XVvDMrc-32" value="&lt;div style=&quot;border-color: var(--border-color);&quot;&gt;GameQuestions&lt;/div&gt;" style="swimlane;fontStyle=0;childLayout=stackLayout;horizontal=1;startSize=30;horizontalStack=0;resizeParent=1;resizeParentMax=0;resizeLast=0;collapsible=1;marginBottom=0;whiteSpace=wrap;html=1;" parent="1" vertex="1">
          <mxGeometry x="-240" y="289" width="140" height="240" as="geometry">
            <mxRectangle x="-160" y="110" width="170" height="30" as="alternateBounds" />
          </mxGeometry>
        </mxCell>
        <mxCell id="H_lcCwCGOFw28XVvDMrc-33" value="&lt;div style=&quot;text-align: center;&quot;&gt;&lt;span style=&quot;background-color: initial;&quot;&gt;id&lt;/span&gt;&lt;/div&gt;" style="text;strokeColor=none;fillColor=none;align=left;verticalAlign=middle;spacingLeft=4;spacingRight=4;overflow=hidden;points=[[0,0.5],[1,0.5]];portConstraint=eastwest;rotatable=0;whiteSpace=wrap;html=1;" parent="H_lcCwCGOFw28XVvDMrc-32" vertex="1">
          <mxGeometry y="30" width="140" height="30" as="geometry" />
        </mxCell>
        <mxCell id="H_lcCwCGOFw28XVvDMrc-34" value="&lt;div style=&quot;border-color: var(--border-color); text-align: center;&quot;&gt;objectId&lt;/div&gt;" style="text;strokeColor=none;fillColor=none;align=left;verticalAlign=middle;spacingLeft=4;spacingRight=4;overflow=hidden;points=[[0,0.5],[1,0.5]];portConstraint=eastwest;rotatable=0;whiteSpace=wrap;html=1;" parent="H_lcCwCGOFw28XVvDMrc-32" vertex="1">
          <mxGeometry y="60" width="140" height="30" as="geometry" />
        </mxCell>
        <mxCell id="H_lcCwCGOFw28XVvDMrc-35" value="&lt;div style=&quot;border-color: var(--border-color); text-align: center;&quot;&gt;&lt;div style=&quot;border-color: var(--border-color);&quot;&gt;levelId&lt;/div&gt;&lt;/div&gt;" style="text;strokeColor=none;fillColor=none;align=left;verticalAlign=middle;spacingLeft=4;spacingRight=4;overflow=hidden;points=[[0,0.5],[1,0.5]];portConstraint=eastwest;rotatable=0;whiteSpace=wrap;html=1;" parent="H_lcCwCGOFw28XVvDMrc-32" vertex="1">
          <mxGeometry y="90" width="140" height="30" as="geometry" />
        </mxCell>
        <mxCell id="H_lcCwCGOFw28XVvDMrc-36" value="&lt;div style=&quot;border-color: var(--border-color); text-align: center;&quot;&gt;&lt;div style=&quot;border-color: var(--border-color);&quot;&gt;question&lt;/div&gt;&lt;/div&gt;" style="text;strokeColor=none;fillColor=none;align=left;verticalAlign=middle;spacingLeft=4;spacingRight=4;overflow=hidden;points=[[0,0.5],[1,0.5]];portConstraint=eastwest;rotatable=0;whiteSpace=wrap;html=1;" parent="H_lcCwCGOFw28XVvDMrc-32" vertex="1">
          <mxGeometry y="120" width="140" height="30" as="geometry" />
        </mxCell>
        <mxCell id="H_lcCwCGOFw28XVvDMrc-37" value="&lt;div style=&quot;border-color: var(--border-color); text-align: center;&quot;&gt;answer&lt;/div&gt;" style="text;strokeColor=none;fillColor=none;align=left;verticalAlign=middle;spacingLeft=4;spacingRight=4;overflow=hidden;points=[[0,0.5],[1,0.5]];portConstraint=eastwest;rotatable=0;whiteSpace=wrap;html=1;" parent="H_lcCwCGOFw28XVvDMrc-32" vertex="1">
          <mxGeometry y="150" width="140" height="30" as="geometry" />
        </mxCell>
        <mxCell id="H_lcCwCGOFw28XVvDMrc-38" value="&lt;div style=&quot;border-color: var(--border-color); text-align: center;&quot;&gt;active&lt;/div&gt;" style="text;strokeColor=none;fillColor=none;align=left;verticalAlign=middle;spacingLeft=4;spacingRight=4;overflow=hidden;points=[[0,0.5],[1,0.5]];portConstraint=eastwest;rotatable=0;whiteSpace=wrap;html=1;" parent="H_lcCwCGOFw28XVvDMrc-32" vertex="1">
          <mxGeometry y="180" width="140" height="30" as="geometry" />
        </mxCell>
        <mxCell id="H_lcCwCGOFw28XVvDMrc-39" value="&lt;span style=&quot;text-align: center;&quot;&gt;isSynced&lt;/span&gt;" style="text;strokeColor=none;fillColor=none;align=left;verticalAlign=middle;spacingLeft=4;spacingRight=4;overflow=hidden;points=[[0,0.5],[1,0.5]];portConstraint=eastwest;rotatable=0;whiteSpace=wrap;html=1;" parent="H_lcCwCGOFw28XVvDMrc-32" vertex="1">
          <mxGeometry y="210" width="140" height="30" as="geometry" />
        </mxCell>
        <mxCell id="H_lcCwCGOFw28XVvDMrc-40" style="edgeStyle=orthogonalEdgeStyle;rounded=0;orthogonalLoop=1;jettySize=auto;html=1;entryX=0;entryY=0.5;entryDx=0;entryDy=0;" parent="1" source="H_lcCwCGOFw28XVvDMrc-33" target="H_lcCwCGOFw28XVvDMrc-26" edge="1">
          <mxGeometry relative="1" as="geometry" />
        </mxCell>
        <mxCell id="H_lcCwCGOFw28XVvDMrc-42" value="&lt;h1&gt;Child Tags under parents&amp;nbsp;&lt;/h1&gt;&lt;p&gt;p1 = [c1, c2, c9]&lt;/p&gt;&lt;p&gt;p2 = [c3, c6, c7, c8, c10]&lt;/p&gt;&lt;p&gt;p2 = [c4, c5, c11, c12, c13]&lt;/p&gt;" style="text;html=1;strokeColor=none;fillColor=none;spacing=5;spacingTop=-20;whiteSpace=wrap;overflow=hidden;rounded=0;" parent="1" vertex="1">
          <mxGeometry x="-300" y="830" width="270" height="150" as="geometry" />
        </mxCell>
        <mxCell id="H_lcCwCGOFw28XVvDMrc-43" value="&lt;h1&gt;Questions under Child Tags&lt;/h1&gt;&lt;p&gt;c1_1 = [Q1, Q2]&lt;/p&gt;&lt;p&gt;c1_2 = [Q13, Q4, Q5]&lt;/p&gt;&lt;p&gt;c1_3 = [Q11, Q12]&lt;/p&gt;&lt;p&gt;&lt;br&gt;&lt;/p&gt;&lt;p&gt;c2_1 = [Q1, Q2]&lt;/p&gt;&lt;p&gt;c2_2 = [ Q3, Q6, Q7, Q8, Q10]&lt;/p&gt;&lt;p&gt;c2_3 = [ Q4, Q5, Q11, Q12, Q13]&lt;/p&gt;&lt;p&gt;&lt;br&gt;&lt;/p&gt;&lt;p&gt;c9_1 = [Q1, Q2]&lt;/p&gt;&lt;p&gt;c9_2 = [ Q3, Q6, Q7, Q8, Q10]&lt;/p&gt;&lt;p&gt;c9_3 = [ Q4, Q5, Q11, Q12, Q13]&lt;/p&gt;&lt;p&gt;&lt;br&gt;&lt;/p&gt;&lt;p&gt;c3_1 = [Q34, Q35, Q36, Q37, Q38]&lt;/p&gt;&lt;p&gt;c3_2 = [Q39, Q40, Q41, Q42, Q43]&lt;/p&gt;&lt;p&gt;c3_3 = [Q44, Q45, Q46, Q47, Q48]&lt;/p&gt;&lt;p&gt;&lt;br&gt;&lt;/p&gt;&lt;p&gt;c6_1 = [Q34, Q35, Q36, Q37, Q38]&lt;/p&gt;&lt;p&gt;c6_2 = [Q39, Q40, Q41, Q42, Q43]&lt;/p&gt;&lt;p&gt;c6_3 = [Q44, Q45, Q46, Q47, Q48]&lt;/p&gt;" style="text;html=1;strokeColor=none;fillColor=none;spacing=5;spacingTop=-20;whiteSpace=wrap;overflow=hidden;rounded=0;" parent="1" vertex="1">
          <mxGeometry x="14" y="820" width="400" height="590" as="geometry" />
        </mxCell>
        <mxCell id="H_lcCwCGOFw28XVvDMrc-44" value="&lt;h1&gt;Stored questions&amp;nbsp;&lt;/h1&gt;&lt;p&gt;Q1 = &#39;virat belogs to pakistan&#39;&amp;nbsp;&lt;/p&gt;&lt;p&gt;Q2 = &#39;virat belogs to india&#39;&amp;nbsp;&lt;/p&gt;&lt;p&gt;Q13 = &#39;virat belogs to RCB&#39;&lt;/p&gt;&lt;p&gt;Q4 = &#39;virat belogs to pakistan&#39;&lt;/p&gt;&lt;p&gt;&lt;br&gt;&lt;/p&gt;&lt;p&gt;Q5 = &#39;virat belogs to acia&#39;&amp;nbsp;&lt;/p&gt;&lt;p&gt;Q11 = &#39;virat belogs to nepal&#39;&lt;/p&gt;&lt;p&gt;Q12 = &#39;virat belogs to pakistan&#39;&lt;/p&gt;&lt;p&gt;Q3 = &#39;virat belogs to pakistan&#39;&lt;/p&gt;&lt;p&gt;&lt;br&gt;&lt;/p&gt;&lt;p&gt;Q6 = &#39;virat belogs to pakistan&#39;&amp;nbsp;&lt;/p&gt;&lt;p&gt;Q7 = &#39;virat belogs to pakistan&#39;&amp;nbsp;&lt;/p&gt;&lt;p&gt;Q8 = &#39;virat belogs to pakistan&#39;&amp;nbsp;&lt;/p&gt;&lt;p&gt;Q10 = &#39;virat belogs to pakistan&#39;&lt;/p&gt;&lt;p&gt;&lt;br&gt;&lt;/p&gt;&lt;p&gt;Q34 = &#39;virat belogs to pakistan&#39;&lt;/p&gt;&lt;p&gt;Q35 = &#39;virat belogs to pakistan&#39;&lt;/p&gt;&lt;p&gt;Q36 = &#39;virat belogs to pakistan&#39;&lt;/p&gt;&lt;p&gt;Q37 = &#39;virat belogs to pakistan&#39;&lt;/p&gt;&lt;p&gt;&lt;br&gt;&lt;/p&gt;&lt;p&gt;Q38 = &#39;virat belogs to pakistan&#39;&lt;/p&gt;&lt;p&gt;Q39 = &#39;virat belogs to pakistan&#39;&lt;/p&gt;&lt;p&gt;Q40 = &#39;virat belogs to pakistan&#39;&lt;/p&gt;&lt;p&gt;Q41 = &#39;virat belogs to pakistan&#39;&lt;/p&gt;&lt;p&gt;&lt;br&gt;&lt;/p&gt;&lt;p&gt;Q42 = &#39;virat belogs to pakistan&#39;&lt;/p&gt;&lt;p&gt;Q43 = &#39;virat belogs to pakistan&#39;&lt;/p&gt;&lt;p&gt;Q44 = &#39;virat belogs to pakistan&#39;&lt;/p&gt;&lt;p&gt;Q45 = &#39;smith belogs to autralia&#39;&lt;/p&gt;&lt;p&gt;&lt;br&gt;&lt;/p&gt;&lt;p&gt;Q46 = &#39;virat belogs to pakistan&#39;&lt;/p&gt;&lt;p&gt;Q47 = &#39;virat belogs to pakistan&#39;&lt;/p&gt;&lt;p&gt;Q48 = &#39;virat belogs to pakistan&#39;&lt;/p&gt;" style="text;html=1;strokeColor=none;fillColor=none;spacing=5;spacingTop=-20;whiteSpace=wrap;overflow=hidden;rounded=0;" parent="1" vertex="1">
          <mxGeometry x="450" y="820" width="326" height="970" as="geometry" />
        </mxCell>
        <mxCell id="H_lcCwCGOFw28XVvDMrc-45" value="&lt;h1&gt;Stored ans&lt;/h1&gt;&lt;p&gt;ans = &quot;[Q2, Q13, Q5, Q45, Q6]&quot;&lt;br&gt;&lt;/p&gt;" style="text;html=1;strokeColor=none;fillColor=none;spacing=5;spacingTop=-20;whiteSpace=wrap;overflow=hidden;rounded=0;" parent="1" vertex="1">
          <mxGeometry x="-305" y="1049" width="270" height="120" as="geometry" />
        </mxCell>
        <mxCell id="H_lcCwCGOFw28XVvDMrc-47" value="updation_history&amp;nbsp;" style="swimlane;fontStyle=0;childLayout=stackLayout;horizontal=1;startSize=30;horizontalStack=0;resizeParent=1;resizeParentMax=0;resizeLast=0;collapsible=1;marginBottom=0;whiteSpace=wrap;html=1;" parent="1" vertex="1">
          <mxGeometry x="580" y="289" width="130" height="270" as="geometry">
            <mxRectangle x="-160" y="110" width="170" height="30" as="alternateBounds" />
          </mxGeometry>
        </mxCell>
        <mxCell id="H_lcCwCGOFw28XVvDMrc-48" value="&lt;div style=&quot;text-align: center;&quot;&gt;id&lt;/div&gt;" style="text;strokeColor=none;fillColor=none;align=left;verticalAlign=middle;spacingLeft=4;spacingRight=4;overflow=hidden;points=[[0,0.5],[1,0.5]];portConstraint=eastwest;rotatable=0;whiteSpace=wrap;html=1;" parent="H_lcCwCGOFw28XVvDMrc-47" vertex="1">
          <mxGeometry y="30" width="130" height="30" as="geometry" />
        </mxCell>
        <mxCell id="H_lcCwCGOFw28XVvDMrc-49" value="&lt;div style=&quot;text-align: center;&quot;&gt;tagId&lt;/div&gt;" style="text;strokeColor=none;fillColor=none;align=left;verticalAlign=middle;spacingLeft=4;spacingRight=4;overflow=hidden;points=[[0,0.5],[1,0.5]];portConstraint=eastwest;rotatable=0;whiteSpace=wrap;html=1;" parent="H_lcCwCGOFw28XVvDMrc-47" vertex="1">
          <mxGeometry y="60" width="130" height="30" as="geometry" />
        </mxCell>
        <mxCell id="3YCr8QV62pMO8RFJuPsM-1" value="&lt;div style=&quot;text-align: center;&quot;&gt;modelId&lt;/div&gt;" style="text;strokeColor=none;fillColor=none;align=left;verticalAlign=middle;spacingLeft=4;spacingRight=4;overflow=hidden;points=[[0,0.5],[1,0.5]];portConstraint=eastwest;rotatable=0;whiteSpace=wrap;html=1;" parent="H_lcCwCGOFw28XVvDMrc-47" vertex="1">
          <mxGeometry y="90" width="130" height="30" as="geometry" />
        </mxCell>
        <mxCell id="H_lcCwCGOFw28XVvDMrc-50" value="&lt;div style=&quot;border-color: var(--border-color); text-align: center;&quot;&gt;modelName&lt;/div&gt;" style="text;strokeColor=none;fillColor=none;align=left;verticalAlign=middle;spacingLeft=4;spacingRight=4;overflow=hidden;points=[[0,0.5],[1,0.5]];portConstraint=eastwest;rotatable=0;whiteSpace=wrap;html=1;" parent="H_lcCwCGOFw28XVvDMrc-47" vertex="1">
          <mxGeometry y="120" width="130" height="30" as="geometry" />
        </mxCell>
        <mxCell id="H_lcCwCGOFw28XVvDMrc-51" value="&lt;div style=&quot;border-color: var(--border-color); text-align: center;&quot;&gt;eventName&lt;/div&gt;" style="text;strokeColor=none;fillColor=none;align=left;verticalAlign=middle;spacingLeft=4;spacingRight=4;overflow=hidden;points=[[0,0.5],[1,0.5]];portConstraint=eastwest;rotatable=0;whiteSpace=wrap;html=1;" parent="H_lcCwCGOFw28XVvDMrc-47" vertex="1">
          <mxGeometry y="150" width="130" height="30" as="geometry" />
        </mxCell>
        <mxCell id="H_lcCwCGOFw28XVvDMrc-52" value="&lt;div style=&quot;border-color: var(--border-color); text-align: center;&quot;&gt;isSynced&lt;br&gt;&lt;/div&gt;" style="text;strokeColor=none;fillColor=none;align=left;verticalAlign=middle;spacingLeft=4;spacingRight=4;overflow=hidden;points=[[0,0.5],[1,0.5]];portConstraint=eastwest;rotatable=0;whiteSpace=wrap;html=1;" parent="H_lcCwCGOFw28XVvDMrc-47" vertex="1">
          <mxGeometry y="180" width="130" height="30" as="geometry" />
        </mxCell>
        <mxCell id="3YCr8QV62pMO8RFJuPsM-49" value="&lt;div style=&quot;border-color: var(--border-color); text-align: center;&quot;&gt;levelId&lt;/div&gt;" style="text;strokeColor=none;fillColor=none;align=left;verticalAlign=middle;spacingLeft=4;spacingRight=4;overflow=hidden;points=[[0,0.5],[1,0.5]];portConstraint=eastwest;rotatable=0;whiteSpace=wrap;html=1;" parent="H_lcCwCGOFw28XVvDMrc-47" vertex="1">
          <mxGeometry y="210" width="130" height="30" as="geometry" />
        </mxCell>
        <mxCell id="3YCr8QV62pMO8RFJuPsM-57" value="&lt;div style=&quot;border-color: var(--border-color); text-align: center;&quot;&gt;active&lt;/div&gt;" style="text;strokeColor=none;fillColor=none;align=left;verticalAlign=middle;spacingLeft=4;spacingRight=4;overflow=hidden;points=[[0,0.5],[1,0.5]];portConstraint=eastwest;rotatable=0;whiteSpace=wrap;html=1;" parent="H_lcCwCGOFw28XVvDMrc-47" vertex="1">
          <mxGeometry y="240" width="130" height="30" as="geometry" />
        </mxCell>
        <mxCell id="H_lcCwCGOFw28XVvDMrc-56" value="&lt;h1&gt;&lt;font style=&quot;font-size: 36px;&quot;&gt;DB sample&lt;/font&gt;&lt;/h1&gt;&lt;p&gt;&lt;br&gt;&lt;/p&gt;&lt;p&gt;delta_syncing(delta_syncing)&lt;/p&gt;&lt;p&gt;&amp;nbsp; &amp;nbsp; &amp;nbsp; &amp;nbsp; id&amp;nbsp; &amp;nbsp; &amp;nbsp; modelId&amp;nbsp; &amp;nbsp; &amp;nbsp; &amp;nbsp; &amp;nbsp; modelName&amp;nbsp; &amp;nbsp; &amp;nbsp; &amp;nbsp; &amp;nbsp; &amp;nbsp; &amp;nbsp; &amp;nbsp; &amp;nbsp; &amp;nbsp; &amp;nbsp;eventName&amp;nbsp; &amp;nbsp; &amp;nbsp; &amp;nbsp; &amp;nbsp; &amp;nbsp; &amp;nbsp; &amp;nbsp; isSynced&lt;/p&gt;&lt;p&gt;-------------------------------------------------------------------------------------------------&lt;/p&gt;&lt;p&gt;&amp;nbsp; &amp;nbsp; &amp;nbsp; &amp;nbsp; 1&amp;nbsp; &amp;nbsp; &amp;nbsp; &amp;nbsp; 7&amp;nbsp; &amp;nbsp; &amp;nbsp; &amp;nbsp; &amp;nbsp; &amp;nbsp; TagWithQuestionObject&amp;nbsp; &amp;nbsp; &amp;nbsp; &amp;nbsp; &amp;nbsp; &amp;nbsp; &amp;nbsp;TAG_ASSOCIATION&amp;nbsp; &amp;nbsp; &amp;nbsp; &amp;nbsp; &amp;nbsp; false&lt;/p&gt;&lt;p&gt;&amp;nbsp; &amp;nbsp; &amp;nbsp; &amp;nbsp; 2&amp;nbsp; &amp;nbsp; &amp;nbsp; &amp;nbsp; 8&amp;nbsp; &amp;nbsp; &amp;nbsp; &amp;nbsp; &amp;nbsp; &amp;nbsp; TagWithQuestionObject&amp;nbsp; &amp;nbsp; &amp;nbsp; &amp;nbsp; &amp;nbsp; &amp;nbsp; &amp;nbsp;TAG_ASSOCIATION&amp;nbsp; &amp;nbsp; &amp;nbsp; &amp;nbsp; &amp;nbsp; false&lt;/p&gt;&lt;p&gt;&amp;nbsp; &amp;nbsp; &amp;nbsp; &amp;nbsp; 3&amp;nbsp; &amp;nbsp; &amp;nbsp; &amp;nbsp; 9&amp;nbsp; &amp;nbsp; &amp;nbsp; &amp;nbsp; &amp;nbsp; &amp;nbsp; TagWithQuestionObject&amp;nbsp; &amp;nbsp; &amp;nbsp; &amp;nbsp; &amp;nbsp; &amp;nbsp; &amp;nbsp;TAG_ASSOCIATION&amp;nbsp; &amp;nbsp; &amp;nbsp; &amp;nbsp; &amp;nbsp; false&lt;/p&gt;&lt;p&gt;&amp;nbsp; &amp;nbsp; &amp;nbsp; &amp;nbsp; 4&amp;nbsp; &amp;nbsp; &amp;nbsp; &amp;nbsp; 10&amp;nbsp; &amp;nbsp; &amp;nbsp; &amp;nbsp; &amp;nbsp; &amp;nbsp;TagWithQuestionObject&amp;nbsp; &amp;nbsp; &amp;nbsp; &amp;nbsp; &amp;nbsp; &amp;nbsp; &amp;nbsp;TAG_ASSOCIATION&amp;nbsp; &amp;nbsp; &amp;nbsp; &amp;nbsp; &amp;nbsp; false&lt;/p&gt;&lt;p&gt;&amp;nbsp; &amp;nbsp; &amp;nbsp; &amp;nbsp; 5&amp;nbsp; &amp;nbsp; &amp;nbsp; &amp;nbsp; 11&amp;nbsp; &amp;nbsp; &amp;nbsp; &amp;nbsp; &amp;nbsp; &amp;nbsp;TagWithQuestionObject&amp;nbsp; &amp;nbsp; &amp;nbsp; &amp;nbsp; &amp;nbsp; &amp;nbsp; &amp;nbsp;TAG_ASSOCIATION&amp;nbsp; &amp;nbsp; &amp;nbsp; &amp;nbsp; &amp;nbsp; false&amp;nbsp; &amp;nbsp; &amp;nbsp; &amp;nbsp; &amp;nbsp;&lt;/p&gt;&lt;p&gt;&amp;nbsp; &amp;nbsp; &amp;nbsp; &amp;nbsp; 6&amp;nbsp; &amp;nbsp; &amp;nbsp; &amp;nbsp; 12&amp;nbsp; &amp;nbsp; &amp;nbsp; &amp;nbsp; &amp;nbsp; &amp;nbsp;TagWithQuestionObject&amp;nbsp; &amp;nbsp; &amp;nbsp; &amp;nbsp; &amp;nbsp; &amp;nbsp; &amp;nbsp;TAG_ASSOCIATION&amp;nbsp; &amp;nbsp; &amp;nbsp; &amp;nbsp; &amp;nbsp; false&amp;nbsp; &amp;nbsp; &amp;nbsp; &amp;nbsp; &amp;nbsp;&lt;/p&gt;&lt;p&gt;&amp;nbsp; &amp;nbsp; &amp;nbsp; &amp;nbsp; 7&amp;nbsp; &amp;nbsp; &amp;nbsp; &amp;nbsp; 13&amp;nbsp; &amp;nbsp; &amp;nbsp; &amp;nbsp; &amp;nbsp; &amp;nbsp;TagWithQuestionObject&amp;nbsp; &amp;nbsp; &amp;nbsp; &amp;nbsp; &amp;nbsp; &amp;nbsp; &amp;nbsp;TAG_REMOVAL&amp;nbsp; &amp;nbsp; &amp;nbsp; &amp;nbsp; &amp;nbsp; &amp;nbsp; &amp;nbsp; false&amp;nbsp; &amp;nbsp;&amp;nbsp;&lt;/p&gt;&lt;p&gt;&lt;br&gt;&lt;/p&gt;&lt;p&gt;&lt;br&gt;&lt;/p&gt;&lt;p&gt;&lt;br&gt;&lt;/p&gt;&lt;p&gt;(TagWithQuestionObject)&lt;/p&gt;&lt;p&gt;&amp;nbsp; &amp;nbsp; &amp;nbsp; &amp;nbsp;id&amp;nbsp; &amp;nbsp; &amp;nbsp; &amp;nbsp; &amp;nbsp; modelId&amp;nbsp; &amp;nbsp; &amp;nbsp; &amp;nbsp; &amp;nbsp;tagId&amp;nbsp; &amp;nbsp; &amp;nbsp; &amp;nbsp; &amp;nbsp; &amp;nbsp;modelName&amp;nbsp; &amp;nbsp; &amp;nbsp; &amp;nbsp; &amp;nbsp; &amp;nbsp;isActive&lt;/p&gt;&lt;p&gt;&amp;nbsp; ----------------------------------------------------------------------------&lt;/p&gt;&lt;p&gt;&amp;nbsp; &amp;nbsp; &amp;nbsp; &amp;nbsp; 7&amp;nbsp; &amp;nbsp; &amp;nbsp; &amp;nbsp; &amp;nbsp; &amp;nbsp; &amp;nbsp;20&amp;nbsp; &amp;nbsp; &amp;nbsp; &amp;nbsp; &amp;nbsp; &amp;nbsp; &amp;nbsp; &amp;nbsp; 2&amp;nbsp; &amp;nbsp; &amp;nbsp; &amp;nbsp; &amp;nbsp; &amp;nbsp; GameQuestions&amp;nbsp; &amp;nbsp; &amp;nbsp; &amp;nbsp;true&lt;/p&gt;&lt;p&gt;&amp;nbsp; &amp;nbsp; &amp;nbsp; &amp;nbsp; 8&amp;nbsp; &amp;nbsp; &amp;nbsp; &amp;nbsp; &amp;nbsp; &amp;nbsp; &amp;nbsp;21&amp;nbsp; &amp;nbsp; &amp;nbsp; &amp;nbsp; &amp;nbsp; &amp;nbsp; &amp;nbsp; &amp;nbsp; 5&amp;nbsp; &amp;nbsp; &amp;nbsp; &amp;nbsp; &amp;nbsp; &amp;nbsp; GameQuestions&amp;nbsp; &amp;nbsp; &amp;nbsp; &amp;nbsp;true&lt;/p&gt;&lt;p&gt;&amp;nbsp; &amp;nbsp; &amp;nbsp; &amp;nbsp; 9&amp;nbsp; &amp;nbsp; &amp;nbsp; &amp;nbsp; &amp;nbsp; &amp;nbsp; &amp;nbsp;23&amp;nbsp; &amp;nbsp; &amp;nbsp; &amp;nbsp; &amp;nbsp; &amp;nbsp; &amp;nbsp; &amp;nbsp; 4&amp;nbsp; &amp;nbsp; &amp;nbsp; &amp;nbsp; &amp;nbsp; &amp;nbsp; GameQuestions&amp;nbsp; &amp;nbsp; &amp;nbsp; &amp;nbsp;true&lt;/p&gt;&lt;p&gt;&amp;nbsp; &amp;nbsp; &amp;nbsp; &amp;nbsp; 10&amp;nbsp; &amp;nbsp; &amp;nbsp; &amp;nbsp; &amp;nbsp; &amp;nbsp; 24&amp;nbsp; &amp;nbsp; &amp;nbsp; &amp;nbsp; &amp;nbsp; &amp;nbsp; &amp;nbsp; &amp;nbsp; 2&amp;nbsp; &amp;nbsp; &amp;nbsp; &amp;nbsp; &amp;nbsp; &amp;nbsp; GameQuestions&amp;nbsp; &amp;nbsp; &amp;nbsp; &amp;nbsp;true&lt;/p&gt;&lt;p&gt;&amp;nbsp; &amp;nbsp; &amp;nbsp; &amp;nbsp; 11&amp;nbsp; &amp;nbsp; &amp;nbsp; &amp;nbsp; &amp;nbsp; &amp;nbsp; 25&amp;nbsp; &amp;nbsp; &amp;nbsp; &amp;nbsp; &amp;nbsp; &amp;nbsp; &amp;nbsp; &amp;nbsp; 7&amp;nbsp; &amp;nbsp; &amp;nbsp; &amp;nbsp; &amp;nbsp; &amp;nbsp; GameQuestions&amp;nbsp; &amp;nbsp; &amp;nbsp; &amp;nbsp;true&lt;/p&gt;&lt;p&gt;&amp;nbsp; &amp;nbsp; &amp;nbsp; &amp;nbsp; 12&amp;nbsp; &amp;nbsp; &amp;nbsp; &amp;nbsp; &amp;nbsp; &amp;nbsp; 20&amp;nbsp; &amp;nbsp; &amp;nbsp; &amp;nbsp; &amp;nbsp; &amp;nbsp; &amp;nbsp; &amp;nbsp; 6&amp;nbsp; &amp;nbsp; &amp;nbsp; &amp;nbsp; &amp;nbsp; &amp;nbsp; GameQuestions&amp;nbsp; &amp;nbsp; &amp;nbsp; &amp;nbsp;true&lt;/p&gt;&lt;p&gt;&lt;br&gt;&lt;/p&gt;&lt;p&gt;&amp;nbsp; &amp;nbsp; &amp;nbsp; &amp;nbsp;&amp;nbsp;&lt;/p&gt;&lt;p&gt;&amp;nbsp; &amp;nbsp; &amp;nbsp; &amp;nbsp; 13&amp;nbsp; &amp;nbsp; &amp;nbsp; &amp;nbsp; &amp;nbsp; &amp;nbsp; 2&amp;nbsp; &amp;nbsp; &amp;nbsp; &amp;nbsp; &amp;nbsp; &amp;nbsp; &amp;nbsp; &amp;nbsp; &amp;nbsp;6&amp;nbsp; &amp;nbsp; &amp;nbsp; &amp;nbsp; &amp;nbsp; &amp;nbsp; GameImages&amp;nbsp; &amp;nbsp; &amp;nbsp; &amp;nbsp; &amp;nbsp; true&lt;/p&gt;&lt;p&gt;&amp;nbsp; &amp;nbsp; &amp;nbsp; &amp;nbsp; 14&amp;nbsp; &amp;nbsp; &amp;nbsp; &amp;nbsp; &amp;nbsp; &amp;nbsp; 9&amp;nbsp; &amp;nbsp; &amp;nbsp; &amp;nbsp; &amp;nbsp; &amp;nbsp; &amp;nbsp; &amp;nbsp; &amp;nbsp;6&amp;nbsp; &amp;nbsp; &amp;nbsp; &amp;nbsp; &amp;nbsp; &amp;nbsp; GameImages&amp;nbsp; &amp;nbsp; &amp;nbsp; &amp;nbsp; &amp;nbsp; true&lt;/p&gt;&lt;p&gt;&amp;nbsp; &amp;nbsp; &amp;nbsp; &amp;nbsp; 15&amp;nbsp; &amp;nbsp; &amp;nbsp; &amp;nbsp; &amp;nbsp; &amp;nbsp; 17&amp;nbsp; &amp;nbsp; &amp;nbsp; &amp;nbsp; &amp;nbsp; &amp;nbsp; &amp;nbsp; &amp;nbsp; 6&amp;nbsp; &amp;nbsp; &amp;nbsp; &amp;nbsp; &amp;nbsp; &amp;nbsp; GameImages&amp;nbsp; &amp;nbsp; &amp;nbsp; &amp;nbsp; &amp;nbsp; true&lt;/p&gt;&lt;p&gt;&lt;br&gt;&lt;/p&gt;&lt;p&gt;&amp;nbsp; &amp;nbsp; &amp;nbsp; &amp;nbsp;&amp;nbsp;&lt;/p&gt;&lt;p&gt;&lt;br&gt;&lt;/p&gt;&lt;p&gt;&lt;br&gt;&lt;/p&gt;&lt;p&gt;&amp;nbsp;(GameQuestions)&amp;nbsp; &amp;nbsp;&lt;/p&gt;&lt;p&gt;&amp;nbsp; &amp;nbsp; id&amp;nbsp; &amp;nbsp; &amp;nbsp; &amp;nbsp; &amp;nbsp; &amp;nbsp; &amp;nbsp; &amp;nbsp; &amp;nbsp;question&lt;/p&gt;&lt;p&gt;-----------------------------------------------------------------&lt;/p&gt;&lt;p&gt;&amp;nbsp; &amp;nbsp; 20&amp;nbsp; &amp;nbsp; &amp;nbsp; &amp;nbsp; &amp;nbsp; &amp;nbsp; &amp;nbsp; &amp;nbsp; &amp;nbsp;Virat belongs to pakistan&lt;/p&gt;&lt;p&gt;&amp;nbsp; &amp;nbsp; 21&amp;nbsp; &amp;nbsp; &amp;nbsp; &amp;nbsp; &amp;nbsp; &amp;nbsp; &amp;nbsp; &amp;nbsp; &amp;nbsp;Virat belongs to pakistan&lt;/p&gt;&lt;p&gt;&amp;nbsp; &amp;nbsp; 23&amp;nbsp; &amp;nbsp; &amp;nbsp; &amp;nbsp; &amp;nbsp; &amp;nbsp; &amp;nbsp; &amp;nbsp; &amp;nbsp;Virat belongs to pakistan&lt;/p&gt;&lt;p&gt;&amp;nbsp; &amp;nbsp; 24&amp;nbsp; &amp;nbsp; &amp;nbsp; &amp;nbsp; &amp;nbsp; &amp;nbsp; &amp;nbsp; &amp;nbsp; &amp;nbsp;Virat belongs to pakistan&lt;/p&gt;&lt;p&gt;&amp;nbsp; &amp;nbsp; 25&amp;nbsp; &amp;nbsp; &amp;nbsp; &amp;nbsp; &amp;nbsp; &amp;nbsp; &amp;nbsp; &amp;nbsp; &amp;nbsp;Virat belongs to pakistan&lt;/p&gt;&lt;p&gt;&lt;br&gt;&lt;/p&gt;&lt;p&gt;&lt;br&gt;&lt;/p&gt;&lt;p&gt;&lt;br&gt;&lt;/p&gt;" style="text;html=1;strokeColor=none;fillColor=none;spacing=5;spacingTop=-20;whiteSpace=wrap;overflow=hidden;rounded=0;" parent="1" vertex="1">
          <mxGeometry x="-970" y="-41" width="570" height="1171" as="geometry" />
        </mxCell>
        <mxCell id="3YCr8QV62pMO8RFJuPsM-3" value="&lt;font style=&quot;&quot;&gt;&lt;span style=&quot;font-weight: bold; font-size: 48px;&quot;&gt;Stored data in Redis&lt;/span&gt;&lt;br&gt;&lt;font style=&quot;&quot; size=&quot;3&quot;&gt;data format&lt;/font&gt;&lt;br&gt;&lt;/font&gt;" style="text;html=1;align=center;verticalAlign=middle;resizable=0;points=[];autosize=1;strokeColor=none;fillColor=none;fontSize=36;" parent="1" vertex="1">
          <mxGeometry x="-95" y="707" width="490" height="110" as="geometry" />
        </mxCell>
        <mxCell id="3YCr8QV62pMO8RFJuPsM-42" value="&lt;div style=&quot;border-color: var(--border-color);&quot;&gt;GameImages&lt;/div&gt;" style="swimlane;fontStyle=0;childLayout=stackLayout;horizontal=1;startSize=30;horizontalStack=0;resizeParent=1;resizeParentMax=0;resizeLast=0;collapsible=1;marginBottom=0;whiteSpace=wrap;html=1;" parent="1" vertex="1">
          <mxGeometry x="50" y="440" width="140" height="180" as="geometry">
            <mxRectangle x="-160" y="110" width="170" height="30" as="alternateBounds" />
          </mxGeometry>
        </mxCell>
        <mxCell id="3YCr8QV62pMO8RFJuPsM-43" value="&lt;div style=&quot;text-align: center;&quot;&gt;&lt;span style=&quot;background-color: initial;&quot;&gt;id&lt;/span&gt;&lt;/div&gt;" style="text;strokeColor=none;fillColor=none;align=left;verticalAlign=middle;spacingLeft=4;spacingRight=4;overflow=hidden;points=[[0,0.5],[1,0.5]];portConstraint=eastwest;rotatable=0;whiteSpace=wrap;html=1;" parent="3YCr8QV62pMO8RFJuPsM-42" vertex="1">
          <mxGeometry y="30" width="140" height="30" as="geometry" />
        </mxCell>
        <mxCell id="3YCr8QV62pMO8RFJuPsM-44" value="&lt;div style=&quot;border-color: var(--border-color); text-align: center;&quot;&gt;image&lt;/div&gt;" style="text;strokeColor=none;fillColor=none;align=left;verticalAlign=middle;spacingLeft=4;spacingRight=4;overflow=hidden;points=[[0,0.5],[1,0.5]];portConstraint=eastwest;rotatable=0;whiteSpace=wrap;html=1;" parent="3YCr8QV62pMO8RFJuPsM-42" vertex="1">
          <mxGeometry y="60" width="140" height="30" as="geometry" />
        </mxCell>
        <mxCell id="3YCr8QV62pMO8RFJuPsM-45" value="&lt;div style=&quot;border-color: var(--border-color); text-align: center;&quot;&gt;&lt;div style=&quot;border-color: var(--border-color);&quot;&gt;objectId&lt;/div&gt;&lt;/div&gt;" style="text;strokeColor=none;fillColor=none;align=left;verticalAlign=middle;spacingLeft=4;spacingRight=4;overflow=hidden;points=[[0,0.5],[1,0.5]];portConstraint=eastwest;rotatable=0;whiteSpace=wrap;html=1;" parent="3YCr8QV62pMO8RFJuPsM-42" vertex="1">
          <mxGeometry y="90" width="140" height="30" as="geometry" />
        </mxCell>
        <mxCell id="3YCr8QV62pMO8RFJuPsM-46" value="&lt;div style=&quot;border-color: var(--border-color); text-align: center;&quot;&gt;&lt;div style=&quot;border-color: var(--border-color);&quot;&gt;active&lt;/div&gt;&lt;/div&gt;" style="text;strokeColor=none;fillColor=none;align=left;verticalAlign=middle;spacingLeft=4;spacingRight=4;overflow=hidden;points=[[0,0.5],[1,0.5]];portConstraint=eastwest;rotatable=0;whiteSpace=wrap;html=1;" parent="3YCr8QV62pMO8RFJuPsM-42" vertex="1">
          <mxGeometry y="120" width="140" height="30" as="geometry" />
        </mxCell>
        <mxCell id="3YCr8QV62pMO8RFJuPsM-47" value="&lt;div style=&quot;border-color: var(--border-color); text-align: center;&quot;&gt;webpimages&lt;/div&gt;" style="text;strokeColor=none;fillColor=none;align=left;verticalAlign=middle;spacingLeft=4;spacingRight=4;overflow=hidden;points=[[0,0.5],[1,0.5]];portConstraint=eastwest;rotatable=0;whiteSpace=wrap;html=1;" parent="3YCr8QV62pMO8RFJuPsM-42" vertex="1">
          <mxGeometry y="150" width="140" height="30" as="geometry" />
        </mxCell>
        <mxCell id="3YCr8QV62pMO8RFJuPsM-50" style="edgeStyle=orthogonalEdgeStyle;rounded=0;orthogonalLoop=1;jettySize=auto;html=1;fontSize=18;entryX=0;entryY=0.5;entryDx=0;entryDy=0;" parent="1" source="3YCr8QV62pMO8RFJuPsM-43" target="3YCr8QV62pMO8RFJuPsM-1" edge="1">
          <mxGeometry relative="1" as="geometry">
            <mxPoint x="570" y="400" as="targetPoint" />
          </mxGeometry>
        </mxCell>
        <mxCell id="3YCr8QV62pMO8RFJuPsM-51" style="edgeStyle=orthogonalEdgeStyle;rounded=0;orthogonalLoop=1;jettySize=auto;html=1;entryX=0;entryY=0.5;entryDx=0;entryDy=0;fontSize=18;" parent="1" source="H_lcCwCGOFw28XVvDMrc-33" target="3YCr8QV62pMO8RFJuPsM-1" edge="1">
          <mxGeometry relative="1" as="geometry" />
        </mxCell>
        <mxCell id="3YCr8QV62pMO8RFJuPsM-52" value="Domain of eventName&amp;nbsp;&lt;br&gt;&lt;span style=&quot;font-size: 12px; text-align: left;&quot;&gt;RMOVE_&lt;/span&gt;&lt;span style=&quot;font-size: 12px; text-align: left;&quot;&gt;&amp;nbsp;TAG_ASSOCIATION,&amp;nbsp;&lt;/span&gt;&lt;span style=&quot;font-size: 12px; text-align: left;&quot;&gt;&lt;br&gt;TAG_ASSOCIATION&lt;/span&gt;&lt;span style=&quot;font-size: 12px; text-align: left;&quot;&gt;, UPDATE, UPDATE_ANS&amp;nbsp;&lt;/span&gt;" style="text;html=1;align=center;verticalAlign=middle;resizable=0;points=[];autosize=1;strokeColor=none;fillColor=none;fontSize=18;" parent="1" vertex="1">
          <mxGeometry x="505" y="580" width="280" height="80" as="geometry" />
        </mxCell>
        <mxCell id="3YCr8QV62pMO8RFJuPsM-58" value="&lt;h1&gt;&lt;br&gt;&lt;/h1&gt;&lt;h1&gt;&lt;font style=&quot;font-size: 24px;&quot;&gt;Tag association and removal on the question&lt;/font&gt;&lt;/h1&gt;&lt;h1&gt;---------------------------------------&lt;/h1&gt;&lt;h1&gt;&lt;span style=&quot;font-weight: normal;&quot;&gt;1) if an already active record is available in the updation_history table with the same modelId, modelName, and tagId with the opposite (&amp;nbsp; TAG_ASSOCIATION/ TAG_ASSOCIATION) the&lt;/span&gt;&lt;/h1&gt;&lt;h1&gt;&lt;span style=&quot;font-weight: normal;&quot;&gt;flag then disable the matching record and create a new record with the disabled flag otherwise, create a new record with an active flag.&lt;/span&gt;&lt;/h1&gt;&lt;h1&gt;On Sync action&lt;/h1&gt;&lt;h1&gt;-----------------&lt;/h1&gt;&lt;h1&gt;&lt;span style=&quot;font-weight: normal;&quot;&gt;1) Find all distinct tagIds and levelId from the updation_history table where modelName = &#39;GameQuestions&#39;&lt;/span&gt;&lt;/h1&gt;&lt;h1&gt;&lt;span style=&quot;font-weight: normal;&quot;&gt;and (eventName = &#39;TAG_ASSOCIATION&#39; or eventName = &#39;REMOVE_TAG_ASSOCIATION&#39; ) and active = true and isSynced = false&lt;/span&gt;&lt;/h1&gt;&lt;h1&gt;&lt;span style=&quot;font-weight: normal;&quot;&gt;2) Find(from DB) all question association for all distinct tagId_levelId and update the Redis with the questionIds&lt;/span&gt;&lt;/h1&gt;&lt;h1&gt;Note: Indexing&amp;nbsp;&lt;span style=&quot;font-weight: 400;&quot;&gt;modelName, isSynced,&amp;nbsp;&lt;/span&gt;&lt;span style=&quot;font-weight: normal;&quot;&gt;eventName and active&lt;/span&gt;&lt;/h1&gt;&lt;h1&gt;&lt;br&gt;&lt;/h1&gt;&lt;h1&gt;&lt;font style=&quot;font-size: 24px;&quot;&gt;Tag association and removal on the image&lt;/font&gt;&lt;/h1&gt;&lt;h1&gt;---------------------------------------&lt;/h1&gt;&lt;h1&gt;&lt;span style=&quot;font-weight: normal;&quot;&gt;1) If an already active record is available in the updation_history table with the same modelId, modelName, and tagId with the opposite (RMOVE_ TAG_ASSOCIATION/ TAG_ASSOCIATION)&lt;/span&gt;&lt;/h1&gt;&lt;h1&gt;&lt;span style=&quot;font-weight: normal;&quot;&gt;flag then disable the matching record and create a new record with the disabled flag otherwise, create a new record with an active flag.&lt;/span&gt;&lt;/h1&gt;&lt;div&gt;&lt;span style=&quot;font-weight: normal;&quot;&gt;&lt;br&gt;&lt;/span&gt;&lt;/div&gt;&lt;h1&gt;On Sync action&lt;/h1&gt;&lt;h1&gt;-----------------&lt;/h1&gt;&lt;h1&gt;&lt;span style=&quot;font-weight: normal;&quot;&gt;1) Find all distinct tagIds and levelId from the updation_history table where modelName = &#39;GameImages&#39;&lt;/span&gt;&lt;/h1&gt;&lt;h1&gt;&lt;span style=&quot;font-weight: normal;&quot;&gt;and (eventName = &#39;TAG_ASSOCIATION&#39; or eventName = &#39;REMOVE_TAG_ASSOCIATION&#39; ) and active = true&lt;/span&gt;&lt;/h1&gt;&lt;h1&gt;&lt;span style=&quot;font-weight: normal;&quot;&gt;2) Find all associated GameImages&#39;s ids and update the related tag&#39;s array in Redis&lt;/span&gt;&lt;/h1&gt;&lt;h1&gt;&lt;br&gt;&lt;/h1&gt;&lt;h1&gt;&lt;br&gt;&lt;/h1&gt;&lt;h1&gt;&lt;font style=&quot;font-size: 24px;&quot;&gt;Image updation&lt;/font&gt;&lt;/h1&gt;&lt;h1&gt;---------------------------------------&lt;/h1&gt;&lt;h1&gt;&lt;span style=&quot;font-weight: normal;&quot;&gt;1) On only content updation, create a new record in updation_history with eventName = UPDATE and modelName = GameImages.&lt;/span&gt;&lt;/h1&gt;&lt;div&gt;&lt;h1 style=&quot;border-color: var(--border-color);&quot;&gt;&lt;span style=&quot;border-color: var(--border-color); font-weight: normal;&quot;&gt;2) If On only content updation, create a new record in updation_history with eventName = UPDATE and modelName = GameImages.&lt;/span&gt;&lt;/h1&gt;&lt;/div&gt;&lt;h1&gt;On Sync action&lt;/h1&gt;&lt;h1&gt;-----------------&lt;/h1&gt;&lt;h1&gt;&lt;span style=&quot;font-weight: normal;&quot;&gt;1) get all recorded images from the updation_history table and update it into Redis.&lt;/span&gt;&lt;/h1&gt;&lt;h1&gt;&lt;br&gt;&lt;/h1&gt;&lt;h1&gt;&lt;br&gt;&lt;/h1&gt;&lt;h1&gt;&lt;font style=&quot;font-size: 24px;&quot;&gt;Question content updation&lt;/font&gt;&lt;/h1&gt;&lt;h1&gt;---------------------------------------&lt;/h1&gt;&lt;h1&gt;&lt;span style=&quot;font-weight: normal;&quot;&gt;1) On only content updation, create a new record in updation_history with eventName = UPDATE and modelName = GameQuestions.&lt;/span&gt;&lt;/h1&gt;&lt;h1&gt;&lt;br&gt;&lt;/h1&gt;&lt;h1&gt;On Sync action&lt;/h1&gt;&lt;h1&gt;-----------------&lt;/h1&gt;&lt;h1&gt;&lt;span style=&quot;font-weight: normal;&quot;&gt;1) get all recorded questions from the updation_history table and update it into Redis.&lt;/span&gt;&lt;/h1&gt;&lt;div&gt;&lt;span style=&quot;font-weight: normal;&quot;&gt;&lt;br&gt;&lt;/span&gt;&lt;/div&gt;&lt;div&gt;&lt;span style=&quot;font-weight: normal;&quot;&gt;&lt;br&gt;&lt;/span&gt;&lt;/div&gt;&lt;div&gt;&lt;span style=&quot;font-weight: normal;&quot;&gt;&lt;br&gt;&lt;/span&gt;&lt;/div&gt;&lt;div&gt;&lt;span style=&quot;font-weight: normal;&quot;&gt;&lt;br&gt;&lt;/span&gt;&lt;/div&gt;&lt;div&gt;&lt;h1 style=&quot;border-color: var(--border-color);&quot;&gt;&lt;font style=&quot;border-color: var(--border-color); font-size: 24px;&quot;&gt;Question content level update&lt;/font&gt;&lt;/h1&gt;&lt;h1 style=&quot;border-color: var(--border-color);&quot;&gt;---------------------------------------&lt;/h1&gt;&lt;h1 style=&quot;border-color: var(--border-color);&quot;&gt;&lt;span style=&quot;font-weight: 400;&quot;&gt;1) create records in updation_history for removal&amp;nbsp; of questionId from existing tagList.&amp;nbsp;&lt;/span&gt;&lt;/h1&gt;&lt;div&gt;&lt;h1 style=&quot;border-color: var(--border-color);&quot;&gt;&lt;span style=&quot;border-color: var(--border-color); font-weight: 400;&quot;&gt;2) create records in updation_history for addition&amp;nbsp;of questionId in associated tagList.&amp;nbsp;&lt;/span&gt;&lt;/h1&gt;&lt;/div&gt;&lt;/div&gt;" style="text;html=1;strokeColor=none;fillColor=none;spacing=5;spacingTop=-20;whiteSpace=wrap;overflow=hidden;rounded=0;fontFamily=Helvetica;fontSize=10;" parent="1" vertex="1">
          <mxGeometry x="-1460" y="1190" width="1343" height="1960" as="geometry" />
        </mxCell>
      </root>
    </mxGraphModel>
  </diagram>
</mxfile>
